# xmcd
#
# Track frame offsets:
#	150
#	9281
#	21063
#	31634
#	43849
#	56137
#	68748
#	80726
#	90986
#	102835
#	114306
#	126568
#	136450
#	147397
#	159232
#	170867
#	182716
#	194976
#	204217
#	217909
#	229785
#	241089
#	253149
#	266639
#	277684
#	287197
#	295531
#	305591
#	318533
#	331655
#	341954
#
# Disc length: 4677 seconds
#
# Revision: 1
# Processed by: cddbd v1.5.2PL0 Copyright (c) Steve Scherf et al.
# Submitted via: EasyCDDAExtractor 10.0.2.1
#
DISCID=c812431f
DTITLE=Jimmy Martin and the Sunny Mountain Boys - 1954 - 1974  - CD1
DYEAR=1994
DGENRE=Bluegrass
TTITLE0=Save It! Save It!
TTITLE1=Chalk Up Another One
TTITLE2=I Pulled A Boo Boo
TTITLE3=They Didn't  Know The Difference (But I Did)
TTITLE4=20/20 Vision
TTITLE5=That's How I Can Count On You
TTITLE6=Before The Sun Goes Down
TTITLE7=Skip, Hop And Wobble
TTITLE8=You'll Be A Lost Ball
TTITLE9=Hit Parade Of Love
TTITLE10=Grand Ole Opry Song
TTITLE11=I'm The Boss (Of This Here House)
TTITLE12=Dog Bite Your Hide
TTITLE13=I'll Drink No More Wine
TTITLE14=Ocean Of Diamonds
TTITLE15=Sophronie
TTITLE16=I'll Never Take No For An Answer
TTITLE17=Rock Hearts
TTITLE18=I Like To Hear 'Em Preach It
TTITLE19=Voice Of My Savior
TTITLE20=Night
TTITLE21=It's Not Like Home
TTITLE22=She's Left Me Again
TTITLE23=Hold Whatcha Got
TTITLE24=Bear Tracks
TTITLE25=Cripple Creek
TTITLE26=In Foggy Old London
TTITLE27=The Jokes On You
TTITLE28=Wooden Shoes
TTITLE29=Home Run Man
TTITLE30=Who'll Sing For Me
EXTD=
EXTT0=
EXTT1=
EXTT2=
EXTT3=
EXTT4=
EXTT5=
EXTT6=
EXTT7=
EXTT8=
EXTT9=
EXTT10=
EXTT11=
EXTT12=
EXTT13=
EXTT14=
EXTT15=
EXTT16=
EXTT17=
EXTT18=
EXTT19=
EXTT20=
EXTT21=
EXTT22=
EXTT23=
EXTT24=
EXTT25=
EXTT26=
EXTT27=
EXTT28=
EXTT29=
EXTT30=
PLAYORDER=
